<?xml version="1.0" standalone="no"?>
<!DOCTYPE svg PUBLIC "-//W3C//DTD SVG 20010904//EN"
 "http://www.w3.org/TR/2001/REC-SVG-20010904/DTD/svg10.dtd">
<svg version="1.0" xmlns="http://www.w3.org/2000/svg"
 width="864.000000pt" height="864.000000pt" viewBox="0 0 864.000000 864.000000"
 preserveAspectRatio="xMidYMid meet">
<metadata>
Created by potrace 1.11, written by Peter Selinger 2001-2013
</metadata>
<g transform="translate(0.000000,864.000000) scale(0.100000,-0.100000)"
fill="#000000" stroke="none">
<path d="M0 7136 c0 -2 7 -23 16 -47 8 -24 17 -51 19 -59 2 -8 20 -67 40 -130
21 -63 38 -119 40 -125 1 -5 5 -17 8 -25 3 -8 29 -89 57 -180 29 -91 60 -190
70 -220 10 -30 42 -129 70 -220 28 -91 55 -174 61 -185 5 -11 11 -29 12 -40 2
-11 7 -27 10 -35 7 -19 78 -241 81 -255 1 -5 24 -77 51 -160 27 -82 49 -154
51 -160 2 -10 53 -171 81 -255 8 -25 16 -52 18 -60 2 -8 17 -55 33 -105 16
-49 43 -133 60 -185 17 -52 54 -169 83 -260 29 -91 53 -167 54 -170 1 -8 66
-214 72 -230 3 -8 7 -19 8 -25 5 -17 66 -209 72 -225 3 -8 7 -20 8 -26 5 -21
96 -309 108 -339 7 -16 12 -33 13 -37 1 -5 2 -9 4 -10 1 -2 3 -11 6 -20 6 -28
11 -42 17 -58 11 -28 119 -372 122 -390 2 -10 9 -29 16 -42 7 -13 11 -23 9
-23 -3 0 96 -316 221 -702 23 -71 42 -132 43 -138 1 -5 22 -71 46 -145 24 -74
44 -137 45 -140 0 -3 16 -53 35 -112 l34 -108 363 0 c200 0 362 3 361 8 -1 4
26 95 61 202 35 107 65 202 66 210 2 8 4 16 5 18 2 1 3 5 4 10 1 4 6 21 13 37
10 26 95 292 98 305 1 3 5 16 9 30 168 529 203 641 205 652 1 5 10 32 20 60
10 29 42 125 69 213 28 88 70 221 93 295 24 74 44 140 45 145 1 6 14 44 28 85
15 41 27 77 28 80 1 7 3 13 34 115 15 50 30 95 33 100 3 6 6 15 7 22 2 10 28
94 168 533 29 91 63 197 75 235 12 39 38 120 57 180 19 61 37 117 39 126 5 14
-38 15 -417 15 l-421 -1 -38 -115 c-21 -63 -61 -189 -89 -280 -28 -91 -54
-172 -57 -180 -3 -8 -7 -19 -8 -25 -2 -5 -13 -39 -25 -75 -12 -36 -23 -69 -24
-75 -1 -5 -17 -57 -36 -115 -18 -58 -34 -109 -36 -115 -1 -5 -24 -80 -52 -165
-28 -85 -62 -193 -77 -240 -14 -47 -29 -92 -32 -100 -3 -8 -7 -20 -9 -27 -1
-7 -28 -92 -60 -190 -32 -98 -59 -182 -60 -188 -3 -15 -64 -207 -73 -230 -6
-15 -21 21 -60 145 -29 91 -55 172 -58 180 -4 8 -7 18 -8 23 -2 4 -3 8 -5 10
-1 1 -3 9 -5 17 -1 8 -33 110 -70 225 -60 188 -86 270 -90 285 -8 30 -59 190
-65 205 -9 20 -60 180 -64 200 -2 8 -93 295 -129 405 -6 19 -11 37 -12 40 0 3
-22 71 -48 152 -26 81 -48 151 -49 155 0 5 -6 24 -13 43 -7 19 -27 78 -43 130
-120 379 -156 492 -172 540 -17 54 -83 261 -155 490 -20 63 -39 122 -42 130
-3 8 -7 20 -8 25 -6 26 -78 251 -84 260 -3 6 -6 15 -8 20 -7 34 -13 55 -27 93
-8 23 -13 42 -9 42 3 0 0 7 -7 15 -7 8 -9 15 -5 15 4 0 3 6 -2 13 -5 6 -25 63
-43 125 l-34 112 -423 0 c-233 0 -423 -2 -423 -4z"/>
<path d="M3513 7118 c2 -13 21 -75 42 -138 20 -63 38 -122 40 -130 2 -8 4 -16
5 -17 2 -2 3 -6 4 -10 1 -5 11 -37 23 -73 12 -36 47 -146 78 -245 31 -99 65
-204 76 -233 10 -28 19 -54 18 -57 0 -3 27 -92 61 -198 34 -105 86 -271 117
-367 30 -96 58 -184 62 -195 5 -11 23 -67 40 -125 18 -58 35 -112 38 -120 3
-8 8 -24 10 -35 1 -11 7 -29 12 -40 6 -11 20 -54 32 -95 12 -41 28 -89 35
-107 8 -17 14 -36 14 -42 0 -6 6 -30 14 -53 8 -24 42 -131 76 -238 34 -107 67
-208 73 -225 6 -16 12 -35 13 -41 1 -6 22 -73 47 -150 24 -76 68 -213 96 -304
29 -91 57 -181 64 -200 6 -19 12 -37 12 -40 1 -3 4 -12 8 -20 3 -8 12 -37 21
-65 37 -122 108 -351 113 -365 4 -8 7 -17 8 -20 0 -3 16 -52 35 -110 19 -58
35 -108 36 -112 1 -5 3 -10 4 -13 1 -3 3 -8 4 -12 2 -5 8 -28 15 -53 7 -25 13
-46 12 -48 -1 -1 6 -16 14 -32 8 -16 15 -32 15 -35 1 -3 2 -10 4 -17 3 -7 11
-35 19 -63 25 -82 87 -279 94 -295 3 -8 7 -22 9 -30 2 -8 13 -42 24 -75 11
-33 23 -69 25 -79 2 -10 10 -35 17 -55 7 -20 13 -39 14 -43 1 -5 3 -10 4 -13
1 -3 3 -8 4 -12 1 -5 10 -35 21 -68 10 -33 19 -62 20 -65 0 -3 27 -86 59 -185
31 -99 63 -198 70 -220 l13 -40 421 -3 c240 -1 422 2 422 7 0 5 -7 28 -16 52
-8 24 -17 51 -19 59 -2 8 -16 53 -31 100 -15 47 -29 90 -30 95 -1 6 -16 53
-33 105 -17 52 -31 98 -31 102 0 4 -5 19 -12 35 -6 15 -12 34 -14 42 -2 11
-32 103 -52 161 -3 8 -6 20 -7 25 -4 15 -36 118 -43 135 -7 19 -5 14 -26 85
-9 33 -21 69 -26 80 -5 11 -29 88 -55 170 -25 83 -54 173 -63 200 -9 28 -17
52 -17 55 -1 3 -4 12 -7 20 -4 8 -31 94 -61 190 -55 175 -121 382 -244 770
-35 113 -71 223 -78 245 -8 22 -35 108 -60 190 -26 83 -49 157 -52 165 -4 8
-7 17 -8 20 -1 3 -12 39 -25 80 -13 41 -25 80 -26 85 -1 6 -23 75 -49 155 -26
79 -48 149 -49 155 -2 8 -97 307 -154 480 -9 28 -17 55 -18 61 -1 7 -14 47
-28 90 -15 44 -34 102 -42 129 -9 28 -18 57 -21 65 -3 8 -8 21 -10 28 -1 6 -5
18 -6 25 -2 6 -7 19 -10 27 -9 24 -57 184 -57 192 -1 4 -9 28 -20 53 -11 25
-20 47 -20 50 0 3 0 6 -1 8 0 1 -2 10 -4 20 -2 10 -7 26 -11 35 -4 9 -8 22 -9
27 -1 6 -24 78 -51 160 -26 83 -49 153 -50 158 -1 4 -3 9 -4 12 -3 5 -3 6 -15
50 -4 17 -10 35 -14 40 -3 6 -7 19 -8 30 -2 11 -7 29 -12 40 -5 11 -28 80 -51
153 l-41 132 -421 0 -420 0 5 -22z"/>
<path d="M6685 6550 c0 -516 -2 -591 -15 -595 -8 -2 -273 -4 -588 -4 -316 0
-577 -2 -580 -6 -12 -12 -9 -755 3 -756 5 -1 269 -2 587 -3 317 0 580 -5 585
-9 4 -5 8 -270 9 -590 1 -320 2 -584 3 -587 2 -7 749 -5 756 2 3 3 7 271 8
594 l2 589 593 0 592 0 0 382 0 383 -42 0 c-24 0 -291 1 -595 1 l-552 0 0 562
c0 309 0 577 -1 595 l0 32 -383 0 -382 0 0 -590z"/>
</g>
</svg>
