<?xml version="1.0" standalone="no"?>
<!DOCTYPE svg PUBLIC "-//W3C//DTD SVG 20010904//EN"
 "http://www.w3.org/TR/2001/REC-SVG-20010904/DTD/svg10.dtd">
<svg version="1.0" xmlns="http://www.w3.org/2000/svg"
 width="148.000000pt" height="148.000000pt" viewBox="0 0 148.000000 148.000000"
 preserveAspectRatio="xMidYMid meet">
<metadata>
Created by potrace 1.11, written by Peter Selinger 2001-2013
</metadata>
<g transform="translate(0.000000,148.000000) scale(0.100000,-0.100000)"
fill="#000000" stroke="none">
<path d="M193 1078 c3 -10 150 -471 208 -655 10 -31 14 -33 54 -33 l43 0 21
63 c19 59 101 318 115 365 7 21 5 22 -42 22 l-50 0 -41 -130 c-23 -71 -43
-130 -45 -130 -5 0 -14 29 -106 318 l-61 192 -51 0 c-36 0 -49 -4 -45 -12z"/>
<path d="M633 1078 c3 -10 150 -471 208 -655 10 -31 13 -33 60 -33 48 0 50 1
43 23 -13 43 -106 334 -160 505 l-55 172 -51 0 c-36 0 -49 -4 -45 -12z"/>
<path d="M1035 1078 c-2 -7 -6 -40 -7 -73 l-3 -60 -52 -5 c-40 -4 -56 -11 -72
-32 -39 -49 -30 -58 55 -58 l77 0 -7 -75 -7 -75 51 0 50 0 0 75 0 75 75 0 75
0 0 51 0 52 -75 -6 -75 -7 0 75 0 75 -40 0 c-24 0 -43 -5 -45 -12z"/>
</g>
</svg>
