<svg xmlns="http://www.w3.org/2000/svg" width="40" height="40" viewBox="0 0 40 40"><defs><style>.a{fill:#8d9aa1;}</style></defs><g transform="translate(0 0)"><path class="a" d="M20,40A20,20,0,1,1,40,20,20,20,0,0,1,20,40ZM20,.976A19.024,19.024,0,1,0,39.024,20,19.024,19.024,0,0,0,20,.976Z" transform="translate(0 0)"/><path class="a" d="M32.32,28.793h1.8V27.032A4.558,4.558,0,0,1,34.7,24.31a3.229,3.229,0,0,1,2.829-1.322,11.4,11.4,0,0,1,3.254.327L40.33,26a6.117,6.117,0,0,0-1.463-.22c-.707,0-1.337.254-1.337.976v2.034h2.9l-.2,2.629h-2.7V40.55H34.115V31.423h-1.8Z" transform="translate(-16.554 -11.769)"/></g></svg>