<svg xmlns="http://www.w3.org/2000/svg" width="40" height="40" viewBox="0 0 40 40"><defs><style>.a{fill:#8d9aa1;}</style></defs><g transform="translate(0 0)"><path class="a" d="M20,40A20,20,0,1,1,40,20,20,20,0,0,1,20,40ZM20,.976A19.024,19.024,0,1,0,39.024,20,19.024,19.024,0,0,0,20,.976Z" transform="translate(0 0)"/><path class="a" d="M29.156,39.572c-2.088,0-3.6-1.322-3.6-2.927s1.868-2.849,3.956-2.829a4.542,4.542,0,0,1,1.351.215c1.132.79,1.951,1.234,2.176,2.132a2.41,2.41,0,0,1,.068.561c0,1.585-1.024,2.824-3.956,2.824m.571-9.3c-1.4-.044-2.732-1.566-2.976-3.415s.7-3.249,2.1-3.21,2.732,1.517,2.976,3.356-.717,3.327-2.1,3.268m2.927,2.727c-.488-.346-1.429-1.2-1.429-1.693,0-.585.166-.873,1.044-1.556A3.654,3.654,0,0,0,33.8,26.89a3.237,3.237,0,0,0-1.751-3.141h1.722l1.215-.878H29.531c-2.439,0-4.732,1.849-4.732,3.985a3.96,3.96,0,0,0,4.141,3.951h.488a2.2,2.2,0,0,0-.273,1.015,2.112,2.112,0,0,0,.741,1.5h-.941c-3.02,0-5.366,1.922-5.366,3.9s2.546,3.19,5.566,3.19c3.444,0,5.366-1.951,5.366-3.9a3.829,3.829,0,0,0-1.9-3.532m7.912-2.566H38.424V28.3h-1.7v2.117H34.6v1.7h2.117v2.117h1.7V32.129h2.117Z" transform="translate(-12.083 -11.714)"/></g></svg>