<svg xmlns="http://www.w3.org/2000/svg" width="40" height="40" viewBox="0 0 40 40"><defs><style>.a{fill:#8d9aa1;}</style></defs><g transform="translate(0 0)"><path class="a" d="M20,40A20,20,0,1,1,40,20,20,20,0,0,1,20,40ZM20,.976A19.024,19.024,0,1,0,39.024,20,19.024,19.024,0,0,0,20,.976Z" transform="translate(0 0)"/><path class="a" d="M37.146,23H26.415A3.415,3.415,0,0,0,23,26.415V37.146a3.415,3.415,0,0,0,3.415,3.415H37.146a3.415,3.415,0,0,0,3.415-3.415V26.415A3.415,3.415,0,0,0,37.146,23Zm.976,2.024h.385V28H35.541V25.024ZM29.278,29.98a3.083,3.083,0,1,1-.585,1.8,3.083,3.083,0,0,1,.585-1.8Zm9.576,7.166a1.683,1.683,0,0,1-1.707,1.7H26.415a1.683,1.683,0,0,1-1.7-1.7V29.98h2.62a4.8,4.8,0,1,0,8.9,0h2.624Z" transform="translate(-11.78 -11.78)"/></g></svg>