<svg xmlns="http://www.w3.org/2000/svg" width="40" height="40" viewBox="0 0 40 40"><defs><style>.a{fill:#8d9aa1;}</style></defs><g transform="translate(0 0)"><path class="a" d="M20,40A20,20,0,1,1,40,20,20,20,0,0,1,20,40ZM20,.976A19.024,19.024,0,1,0,39.024,20,19.024,19.024,0,0,0,20,.976Z" transform="translate(0 0)"/><path class="a" d="M26.868,38.955H23.454V27.989h3.415Zm-1.8-12.337h-.024a1.909,1.909,0,1,1,.049-3.8,1.91,1.91,0,1,1-.024,3.8ZM40.561,38.955h-3.9V33.282c0-1.463-.6-2.5-1.951-2.5a1.951,1.951,0,0,0-1.854,1.342,2.483,2.483,0,0,0-.083.893v5.937H28.956s.049-10.049,0-10.961H32.8v1.737a3.52,3.52,0,0,1,3.415-1.824c2.439,0,4.346,1.576,4.346,4.971Z" transform="translate(-11.78 -11.682)"/></g></svg>