<svg xmlns="http://www.w3.org/2000/svg" width="40" height="40" viewBox="0 0 40 40"><defs><style>.a{fill:#8d9aa1;}</style></defs><g transform="translate(0 0)"><path class="a" d="M20,40A20,20,0,1,1,40,20,20,20,0,0,1,20,40ZM20,.976A19.024,19.024,0,1,0,39.024,20,19.024,19.024,0,0,0,20,.976Z" transform="translate(0 0)"/><path class="a" d="M40.561,30.011a7.22,7.22,0,0,1-2.068.566,3.6,3.6,0,0,0,1.58-1.99,7.185,7.185,0,0,1-2.288.873,3.6,3.6,0,0,0-6.229,2.463,3.551,3.551,0,0,0,.093.82,10.244,10.244,0,0,1-7.429-3.761,3.61,3.61,0,0,0,1.117,4.81,3.61,3.61,0,0,1-1.634-.449v.044A3.6,3.6,0,0,0,26.6,36.918a3.513,3.513,0,0,1-.951.127,3.567,3.567,0,0,1-.693-.063,3.6,3.6,0,0,0,3.366,2.5A7.288,7.288,0,0,1,23,40.977a10.239,10.239,0,0,0,15.766-8.624v-.488a7.317,7.317,0,0,0,1.8-1.854" transform="translate(-11.78 -14.508)"/></g></svg>