<svg xmlns="http://www.w3.org/2000/svg" width="40" height="40" viewBox="0 0 40 40"><defs><style>.a{fill:#8d9aa1;}</style></defs><g transform="translate(0 0)"><path class="a" d="M20,40A20,20,0,1,1,40,20,20,20,0,0,1,20,40ZM20,.976A19.024,19.024,0,1,0,39.024,20,19.024,19.024,0,0,0,20,.976Z" transform="translate(0 0)"/><path class="a" d="M40.561,29.9q-.117,2.561-3.58,7-3.58,4.644-6.063,4.644-1.532,0-2.6-2.829l-1.42-5.2q-.79-2.834-1.693-2.834a5.4,5.4,0,0,0-1.376.824L23,30.45q1.3-1.137,2.561-2.278a6,6,0,0,1,2.6-1.576q2.044-.2,2.522,2.79.488,3.229.707,4.015.59,2.673,1.3,2.673.546,0,1.654-1.727a6.787,6.787,0,0,0,1.18-2.639q.156-1.493-1.18-1.493a3.346,3.346,0,0,0-1.3.273Q34.346,26.28,38,26.4,40.707,26.475,40.561,29.9Z" transform="translate(-11.78 -13.519)"/></g></svg>