<svg xmlns="http://www.w3.org/2000/svg" width="40" height="40" viewBox="0 0 40 40"><defs><style>.a{fill:#8d9aa1;}</style></defs><g transform="translate(0 0)"><path class="a" d="M20,40A20,20,0,1,1,40,20,20,20,0,0,1,20,40ZM20,.976A19.024,19.024,0,1,0,39.024,20,19.024,19.024,0,0,0,20,.976Z" transform="translate(0 0)"/><path class="a" d="M35.2,34.526l-5.756,3.385V31.155Zm5.366,3.132V31.384a2.962,2.962,0,0,0-3.024-3.024H26.024A2.962,2.962,0,0,0,23,31.384v6.278a2.962,2.962,0,0,0,3.024,3.024H37.532a2.962,2.962,0,0,0,3.024-3.024" transform="translate(-11.78 -14.526)"/></g></svg>